<svg xmlns="http://www.w3.org/2000/svg" viewBox="0 0 120 120" fill="none">
  <g clip-path="url(#a)">
    <mask id="b" width="120" height="120" x="0" y="0" maskUnits="userSpaceOnUse" style="mask-type:luminance">
      <path fill="#fff" d="M0 0h120v120H0V0Z"/>
    </mask>
    <g mask="url(#b)">
      <path fill="#DDB7AC" d="M102.426 17.574C91.094 6.24 76.026 0 60 0 43.974 0 28.906 6.241 17.574 17.574 6.24 28.906 0 43.974 0 60c0 16.026 6.241 31.094 17.574 42.426C28.906 113.759 43.974 120 60 120c16.026 0 31.094-6.241 42.426-17.574C113.759 91.094 120 76.026 120 60c0-16.026-6.241-31.094-17.574-42.426Z"/>
      <path fill="#C99C8B" d="M102.426 17.574C91.094 6.24 76.026 0 60 0v120c16.026 0 31.094-6.241 42.426-17.574C113.759 91.094 120 76.026 120 60c0-16.026-6.241-31.094-17.574-42.426Z"/>
      <path fill="#F2F4F7" d="M59.998 15.377c-24.605 0-44.623 20.018-44.623 44.623 0 24.605 20.018 44.623 44.623 44.623 24.605 0 44.623-20.018 44.623-44.623 0-24.605-20.017-44.623-44.623-44.623Z"/>
      <path fill="#F4EFEC" d="M60 15.377v89.246c24.605 0 44.623-20.018 44.623-44.623 0-24.605-20.018-44.623-44.623-44.623Z"/>
      <path fill="#C99C8B" d="M67.527 52.472V40.93a3.516 3.516 0 0 0-3.515-3.516h-8.026a3.516 3.516 0 0 0-3.515 3.516v11.54H40.93a3.516 3.516 0 0 0-3.516 3.517v8.025a3.516 3.516 0 0 0 3.516 3.515h11.54V79.07a3.516 3.516 0 0 0 3.516 3.515h8.026a3.516 3.516 0 0 0 3.515-3.515V67.529h11.541a3.516 3.516 0 0 0 3.516-3.516v-8.026a3.516 3.516 0 0 0-3.516-3.515h-11.54Z"/>
      <path fill="#C99C8B" d="M79.07 52.472H67.527V40.93a3.516 3.516 0 0 0-3.515-3.516H60v45.17h4.013a3.516 3.516 0 0 0 3.515-3.515V67.529H79.07a3.515 3.515 0 0 0 3.516-3.516v-8.026a3.515 3.515 0 0 0-3.516-3.515Z"/>
    </g>
  </g>
  <defs>
    <clipPath id="a">
      <path fill="#fff" d="M0 0h120v120H0z"/>
    </clipPath>
  </defs>
</svg>
