<svg xmlns="http://www.w3.org/2000/svg" viewBox="0 0 130 130" fill="none">
  <mask id="a" width="120" height="121" x="0" y="0" maskUnits="userSpaceOnUse" style="mask-type:luminance">
    <path fill="#fff" d="M0 0h120v120H0V0Z"/>
  </mask>
  <g fill-rule="evenodd" clip-rule="evenodd" mask="url(#a)">
    <path fill="#EDEDED" d="M11.25 50.14v62.619c0 2.69 2.21 4.898 4.903 4.898h87.694c2.693 0 4.903-2.208 4.903-4.898V50.141h-97.5Z"/>
    <path fill="#8A8F75" d="M54.168 74.246c8.139-15.524-25.784-19.273-23.516 0l2.374 20.213c1.653 14.048 19.58 10.286 16.984 0-1.432-5.656-.085-12.134 4.158-20.213ZM88.605 74.246c2.262-19.273-31.66-15.524-23.515 0 4.236 8.079 5.59 14.557 4.158 20.213-2.602 10.286 15.33 14.048 16.978 0l2.38-20.213Z"/>
    <path fill="#DDB7AC" d="M89.262 15.775c-13.317-17.908-45.207-17.908-58.524 0H16.153c-2.7 0-4.903 2.208-4.903 4.898v29.468h97.5V20.673c0-2.69-2.203-4.898-4.903-4.898H89.262Z"/>
    <path fill="#EDEDED" d="M60.002 14.155c-8.557 0-16.213 3.644-21.325 9.372-4.08 4.578-6.544 10.489-6.544 16.941H52.32c0-3.2 1.96-5.943 4.752-7.092a7.652 7.652 0 0 1 2.93-.582c4.242 0 7.68 3.436 7.68 7.674h20.182c0-6.453-2.458-12.363-6.538-16.941-5.112-5.728-12.767-9.372-21.325-9.372Z"/>
    <path fill="#8A8F75" d="M57.073 33.376a7.669 7.669 0 0 0-4.753 7.092h15.363c0-4.238-3.438-7.673-7.681-7.673-1.04 0-2.027.208-2.93.58Z"/>
  </g>
</svg>
