<svg xmlns="http://www.w3.org/2000/svg" viewBox="0 0 110 110" fill="none">
  <path fill="#DDB7AC" d="m36.146 60.329 24.172-24.17L73.83 49.671l-24.172 24.17L36.146 60.33Zm-9.622-.487a8.038 8.038 0 0 0-5.72-2.37c-2.162 0-4.193.842-5.721 2.37L2.365 72.558c-3.155 3.154-3.155 8.286 0 11.44L26 107.631A8.037 8.037 0 0 0 31.72 110a8.037 8.037 0 0 0 5.721-2.369l12.717-12.716c3.154-3.155 3.154-8.287 0-11.441L26.524 59.842ZM84 2.369A8.038 8.038 0 0 0 78.28 0a8.038 8.038 0 0 0-5.721 2.37L59.842 15.084c-3.154 3.155-3.154 8.287 0 11.441L83.476 50.16a8.038 8.038 0 0 0 5.72 2.37c2.162 0 4.193-.842 5.722-2.37l12.716-12.716c3.155-3.154 3.155-8.287 0-11.441L84 2.369Z"/>
</svg>
