<svg xmlns="http://www.w3.org/2000/svg" fill="none" viewBox="0 0 130 130">
  <g fill="#8A8F75" fill-rule="evenodd" clip-path="url(#a)" clip-rule="evenodd">
    <path d="m77.899 82.12 8.368 8.368c.032.03.064.061.093.093l8.456 8.456a45.29 45.29 0 0 0 3.778-3.778L35.302 31.966a45.26 45.26 0 0 0-3.779 3.779l14.044 14.043.005.005 23.903 23.903.005.005 8.412 8.412.007.007Z"/>
    <path d="M101.098 96.188a47.79 47.79 0 0 1-5.35 5.352l-.091.102a1.205 1.205 0 0 1-.273.207c-8.22 6.869-18.795 11.008-30.32 11.008-26.112 0-47.353-21.244-47.353-47.354 0-11.524 4.139-22.098 11.007-30.32a1.295 1.295 0 0 1 .31-.365 47.79 47.79 0 0 1 5.35-5.352c.03-.034.06-.068.091-.1.083-.082.176-.15.273-.207 8.22-6.87 18.795-11.01 30.322-11.01 26.113 0 47.354 21.244 47.354 47.354 0 11.524-4.139 22.1-11.007 30.32a1.38 1.38 0 0 1-.208.275l-.105.09ZM65.062 12.82c-29.051 0-52.683 23.632-52.683 52.683s23.632 52.683 52.683 52.683 52.683-23.632 52.683-52.683S94.113 12.82 65.062 12.82Z"/>
    <path d="M78.263 86.015v13.932h5.922v-8.01l-5.922-5.922Zm-8.417-8.417v22.349h5.922v-16.43l-5.922-5.919Zm-23.905-9.715v32.064h21.41V75.1l-4.941-4.94c-1.712-.11-3.286-.833-4.683-2.147-3.161-2.973-7.125-3.017-11.786-.13Zm0-14.192v11.317c3.795-2 7.315-2.31 10.39-.924L45.942 53.69Zm6.127-8.49 15.283 15.28v-15.28H52.068Zm21.912-8.335H53.627l-4.971 4.922.915.917h18.514l5.895-5.839ZM56.015 31.06a1.657 1.657 0 0 0-1.657 1.656v1.656h21.41v-1.656a1.656 1.656 0 0 0-1.656-1.656H56.015ZM69.846 45.2V62.98l5.922 5.92V45.2h-5.922Zm7.169-7.824-5.38 5.33H82.4l-5.385-5.33Zm1.248 7.825v26.195l5.922 5.922V45.2h-5.922Z"/>
  </g>
  <defs>
    <clipPath id="a">
      <path fill="#fff" d="M5 5.323h120v120H5z"/>
    </clipPath>
  </defs>
</svg>
