<svg width="1512" height="361" viewBox="0 0 1512 361" fill="none" xmlns="http://www.w3.org/2000/svg">
<path fill-rule="evenodd" clip-rule="evenodd" d="M-22 129.838L51.0956 181.773C114.613 230.355 241.648 291.492 368.684 307.686C495.719 323.88 622.754 259.104 749.789 259.104C876.824 259.104 1003.86 323.88 1130.89 348.171C1257.93 372.462 1384.96 356.268 1448.48 348.171L1512 340.074V1.64509e-05H1448.48C1384.96 1.64509e-05 1257.93 1.64509e-05 1130.89 1.64509e-05C1003.86 1.64509e-05 876.824 1.64509e-05 749.789 1.64509e-05C622.754 1.64509e-05 495.719 1.64509e-05 368.684 1.64509e-05C241.648 1.64509e-05 114.613 1.64509e-05 51.0956 1.64509e-05H-12.422L-22 129.838Z" fill="#F6F8F7"/>
</svg>
