
<svg xmlns="http://www.w3.org/2000/svg" width="120" height="120" fill="none" viewBox="0 0 120 120"><path fill="#8A8F75" d="M44.402 36.063a3.653 3.653 0 0 1-1.596-.361 3.766 3.766 0 0 1-2.068-3.723 5.821 5.821 0 0 1 .428-1.534c.092-.218.169-.442.23-.67a1.786 1.786 0 0 0-.86-1.875 1.407 1.407 0 0 1 1.312-2.488 4.569 4.569 0 0 1 2.29 4.989c-.09.363-.207.719-.35 1.064-.116.259-.2.53-.253.809a.894.894 0 0 0 1.514.733 1.406 1.406 0 1 1 1.962 2.016 3.75 3.75 0 0 1-2.61 1.04Zm35.058 9.514a5.904 5.904 0 0 1-2.007-2.245 1.45 1.45 0 0 1 .463-1.909 1.408 1.408 0 0 1 1.997.544c.24.497.603.925 1.055 1.242a1.415 1.415 0 0 1 .641 1.202 1.402 1.402 0 0 1-2.149 1.166Zm-23.19-3.804a1.406 1.406 0 0 1-.34-2.77.726.726 0 0 0 .5-.57 1.405 1.405 0 0 1 2.5-.713 1.407 1.407 0 0 1 .294 1.037 3.541 3.541 0 0 1-2.612 2.974 1.41 1.41 0 0 1-.342.042Zm-9.527 6.254a2.743 2.743 0 0 1-1-.185 1.407 1.407 0 0 1 1.007-2.625.191.191 0 0 0 .091-.04 1.407 1.407 0 0 1 2.616 1.035 2.872 2.872 0 0 1-1.528 1.566c-.374.164-.778.25-1.186.25Zm8.418 2.427c-.201 0-.401-.02-.598-.062a1.406 1.406 0 0 1 .583-2.751.314.314 0 0 0 .205-.069.322.322 0 0 0 .136-.166 1.407 1.407 0 1 1 2.778.437 3.094 3.094 0 0 1-1.32 2.046 3.164 3.164 0 0 1-1.784.565Zm-2.572-13.78a1.406 1.406 0 0 1-.34-2.771l.95-.238a1.407 1.407 0 0 1 .683 2.729l-.95.237a1.4 1.4 0 0 1-.343.043Zm-9.098 6.628a1.405 1.405 0 0 1-1.305-1.928l.237-.594a1.406 1.406 0 1 1 2.612 1.044l-.238.594a1.406 1.406 0 0 1-1.306.884Zm42.353-6.663a1.43 1.43 0 0 1-.164-.009 3.951 3.951 0 0 1-3.455-3.71 1.406 1.406 0 1 1 2.805-.205 1.126 1.126 0 0 0 .973 1.121 1.406 1.406 0 0 1-.16 2.803h.001Zm5.005-5.436c-.325 0-.64-.112-.89-.319-.259-.206-1.184-.793-1.952-.735a1.408 1.408 0 0 1-1.178-2.316c.243-.284.588-.459.96-.488 2.034-.157 3.762 1.208 3.952 1.364a1.406 1.406 0 0 1-.892 2.494Z"/><path fill="#8A8F75" d="M46.71 33.34a1.406 1.406 0 0 0-1.99-.027.894.894 0 0 1-1.512-.733c.023-.22.512-1.477.602-1.873a4.573 4.573 0 0 0-1.089-4.053c.062-.097 1.322-2.88 1.369-2.995.381-.93.73-1.945.697-3.06-.043-1.474-.797-2.759-1.963-3.354-1.54-.784-3.617-.16-4.63 1.389a4.937 4.937 0 0 0-.603 3.697.234.234 0 0 1-.31.269c-1.388-.498-2.676-.496-3.748.01a3.925 3.925 0 0 0-2.193 3.42 4.023 4.023 0 0 0 1.98 3.49 4.48 4.48 0 0 0 2.268.582 5.75 5.75 0 0 0 1.453-.193 11.761 11.761 0 0 0 2.822-1.276c.141-.08.34-.175.563-.284a1.802 1.802 0 0 1 .642 1.731 5.17 5.17 0 0 1-.23.671 5.805 5.805 0 0 0-.428 1.534 3.765 3.765 0 0 0 2.068 3.723c.498.239 1.043.362 1.596.36a3.75 3.75 0 0 0 2.608-1.04 1.406 1.406 0 0 0 .027-1.989Zm-8.637-6.926c-.547.33-1.132.59-1.743.773a2.166 2.166 0 0 1-1.595-.1c-.35-.203-.654-.625-.583-1.01.265-1.446 2.133-.859 2.45-.724.343.146 1.326.66 1.464.73a.188.188 0 0 1 .007.331Zm2.419-6.26c.732-.747 1.403-.088 1.484.527.112.852-.261 1.726-.674 2.519a.22.22 0 0 1-.387.004 5.845 5.845 0 0 1-.484-1.094c-.23-.748-.328-1.559.06-1.956Z"/><path fill="#8A8F75" d="M100.475 35.072c1.4-4.224.542-8.709.246-9.982a.31.31 0 0 1 .006-.142c1.509-6.576-1.505-13.302-8.062-17.992a25.882 25.882 0 0 0-11.69-4.606c-4.481-.549-8.629.262-11.993 2.347C63.538 8.07 60.3 12.18 57.698 15.484c-.82 1.043-1.55 1.965-2.26 2.76-6.75-.765-13.421 2.683-17.955 9.326-5.965 8.742-2.447 16.933 2.726 21.718-12.629 20.325-14.632 53.661-14.945 63.529a4.217 4.217 0 0 0 4.216 4.352h52.26a4.225 4.225 0 0 0 3.17-1.435 4.209 4.209 0 0 0 1.013-3.328c-.29-2.225-.708-5.523-1.244-9.819a5.18 5.18 0 0 0 2.786-.423c2.265-1.024 3.909-3.554 4.887-7.518a2.05 2.05 0 0 1 .562-.988 3.475 3.475 0 0 0 1.111-2.922c-.277-2.479-1.841-4.264-4.395-5.186.073-.426.142-.89.207-1.383 5.043-4.67 7.846-10.235 8.331-16.55.42-5.443-.915-10.407-1.89-14.03-.456-1.696-.85-3.16-.89-4.07-.132-2.921.879-4.984 2.277-7.838a50 50 0 0 0 2.81-6.607Zm-60.667-5.916c4.116-6.032 9.9-8.964 15.867-8.043a13.498 13.498 0 0 1 10.567 8.442c-1.04.714-1.833 1.853-2.29 3.35a1.455 1.455 0 0 0 .81 1.793 1.408 1.408 0 0 0 1.862-.914c.436-1.483 1.247-2.25 2.408-2.277 1.342-.033 2.869.957 3.27 2.116.426 1.227.311 2.47-.305 3.324-.51.706-1.325 1.078-2.36 1.078h-.078a1.406 1.406 0 0 0-1.406 1.388c.204 1.794.056 3.735-.2 4.743-1.898 7.51-8.923 9.818-9.42 9.971-8.251 2.219-9.836.27-12.233-2.679-.883-1.087-1.885-2.32-3.29-3.455-5.004-4.043-8.473-11.114-3.202-18.837ZM82.644 66.85c-2.449-7.209-7.096-12.22-13.814-14.893a1.407 1.407 0 1 1 1.04-2.613c7.412 2.95 12.75 8.69 15.437 16.601 2.687 7.91 1.95 15.534 1.66 17.681a1.406 1.406 0 1 1-2.788-.376c.27-1.995.955-9.07-1.535-16.402v.002Zm-14.664-.812c-7.323 3.645-14.892 3.961-23.14.964-2.964-1.077-4.125-2.49-4.004-4.878.108-2.126.625-2.742.78-2.88a.317.317 0 0 1 .257-.098c.656.028.992-.433 1.358-.648a.797.797 0 0 1 .499-.023c.122.055.44.426.598 1.351.193 1.137 1.209 1.997 2.47 2.091 1.185.088 11.784.73 18.932-3.868a3.522 3.522 0 0 1 2.917-.41 3.4 3.4 0 0 1 2.143 1.87c1.687 3.79-1.403 5.828-2.81 6.528v.001Zm-3.02 28.739c-.374-.084-.787-.18-1.184-.28a5.343 5.343 0 0 0-4.596.958c-3.533 2.79-7.524 3.86-11.044 4.804-1.806.484-3.197 1.393-4.615 2.038-.036.016-.069.038-.105.053-1.45.6-3.266-.043-4.59-1.138a2.372 2.372 0 0 1-.58-2.983c.435-.715 1.892-1.01 2.766-1.127.75-.1 1.292-.172 1.722-.621.808-.845 1.75-2.32 2.94-4.19 1.361-2.134 2.904-4.553 4.558-6.496a7.203 7.203 0 0 1 1.71-1.468c3.553 3.778 8.008 6.776 13.196 8.909a11.903 11.903 0 0 1-.177 1.54Zm25.946-3.897c.185 1.467-1.065 2.197-1.286 3.094-.739 2.997-1.916 4.996-3.315 5.628-.75.34-1.577.28-2.459-.18-1.717-.893-2.995-2.589-3.604-3.52-.579-.884-1.52-2.085-3.022-2.306C67.01 92.09 58.668 87.876 53.094 81.41a37.105 37.105 0 0 1-6.499-10.884 32.84 32.84 0 0 0 9.064 1.33c2.13 0 4.254-.236 6.332-.703.535 3.01.969 4.982 1.683 6.09 4.23 6.563 11.656 8.365 15.646 9.334.865.211 3.823 1.141 4.776 1.093 4.379-.364 6.576 1.344 6.81 3.21Zm.023-57.774c-.396.461-.806.938-1.206 1.466-1.695 2.239-1.792 5.478-.82 7.098a.464.464 0 0 1 .068.344.52.52 0 0 1-.282.32c-.31.172-.844.407-1.41.657-1.828.803-3.178 1.436-3.875 2.268-.272.344-.523.702-.752 1.074-.796 1.227-1.885 2.907-3.499 3.204a3.512 3.512 0 0 1-2.325-.377c-1.723-.924-3.497-1.992-5.532-2.858a1.127 1.127 0 0 1-.656-1.321c.367-1.417.564-2.871.588-4.334a5.3 5.3 0 0 0 3.047-2.05c1.153-1.596 1.408-3.799.683-5.89a5.524 5.524 0 0 0-1.394-2.13.21.21 0 0 1 .02-.326c2.866-2 5.954-1.57 9.456-1.08 2.98.416 6.251.872 9.65-.202a.299.299 0 0 1 .39.309c-.156 1.502-1.014 2.508-2.15 3.828Z"/></svg>