<svg width="1512" height="494" viewBox="0 0 1512 494" fill="none" xmlns="http://www.w3.org/2000/svg">
<rect y="111.886" width="1512" height="382.115" fill="#F4EFEC"/>
<path fill-rule="evenodd" clip-rule="evenodd" d="M0 23.4229L63 15.893C126 8.36316 252 -6.69656 378 3.34325C504 13.3831 630 48.5224 756 51.0324C882 53.5423 1008 23.4229 1134 15.893C1260 8.36316 1386 23.4229 1449 30.9527L1512 38.4826V113.781H1449C1386 113.781 1260 113.781 1134 113.781C1008 113.781 882 113.781 756 113.781C630 113.781 504 113.781 378 113.781C252 113.781 126 113.781 63 113.781H0V23.4229Z" fill="#F4EFEC"/>
</svg>
