<svg width="1512" height="202" viewBox="0 0 1512 202" fill="none" xmlns="http://www.w3.org/2000/svg">
<path fill-rule="evenodd" clip-rule="evenodd" d="M-5 202L79.7231 179.721C164.446 157.441 333.892 112.14 503.339 112.14C672.785 112.14 842.231 157.441 1011.68 146.301C1166.67 136.112 1270.61 137.617 1350.86 137.948C1365.28 138.008 1379.51 141.116 1392.6 147.134L1512 202V0C1427.28 0 1181.12 0 1011.68 0C842.231 0 672.785 0 503.339 0C333.892 0 164.446 0 79.7231 0H-5V202Z" fill="#DDB7AC" fill-opacity="0.5"/>
<path fill-rule="evenodd" clip-rule="evenodd" d="M1512 134.504L1449 146.88C1386 159.255 1260 184.006 1134 167.505C1008 151.005 882 93.2532 756 89.128C630 85.0029 504 134.504 378 146.88C252 159.255 126 134.504 63 122.129L0 109.754V-14L63 -14C126 -14 252 -14 378 -14C504 -14 630 -14 756 -14C882 -14 1008 -14 1134 -14C1260 -14 1386 -14 1449 -14H1512V134.504Z" fill="#8A8F75" fill-opacity="0.6"/>
</svg>
